<?xml version="1.0" standalone="no"?>
<!DOCTYPE svg PUBLIC "-//W3C//DTD SVG 20010904//EN"
 "http://www.w3.org/TR/2001/REC-SVG-20010904/DTD/svg10.dtd">
<svg version="1.0" xmlns="http://www.w3.org/2000/svg"
 width="512.000000pt" height="512.000000pt" viewBox="0 0 512.000000 512.000000"
 preserveAspectRatio="xMidYMid meet">

<g transform="translate(0.000000,512.000000) scale(0.100000,-0.100000)"
fill="#000000" stroke="none">
<path d="M2490 5100 c-19 -10 -585 -569 -1257 -1242 -1001 -1002 -1222 -1229
-1228 -1256 -15 -70 15 -135 78 -170 27 -14 68 -17 274 -20 l243 -4 0 -1054 0
-1054 -240 0 c-222 0 -244 -2 -280 -20 -45 -23 -80 -80 -80 -130 0 -50 35
-107 80 -130 39 -20 53 -20 2480 -20 2427 0 2441 0 2480 20 45 23 80 80 80
130 0 50 -35 107 -80 130 -36 18 -58 20 -280 20 l-240 0 0 1054 0 1054 243 4
c206 3 247 6 274 20 63 35 93 100 78 170 -6 27 -227 254 -1228 1256 -694 695
-1238 1232 -1259 1243 -46 24 -93 24 -138 -1z m140 -1701 c157 -71 414 -294
529 -459 205 -293 305 -656 273 -998 -40 -443 -253 -824 -612 -1091 -52 -39
-98 -71 -102 -71 -5 0 -8 233 -8 518 l0 517 131 130 c72 72 137 142 145 157
47 90 -26 210 -129 210 -50 0 -79 -12 -118 -49 l-27 -24 -4 69 c-4 83 -36 133
-94 152 -75 25 -150 -3 -185 -70 -17 -31 -19 -61 -19 -294 l0 -260 -27 26
c-41 38 -70 50 -120 50 -103 0 -176 -120 -129 -210 8 -15 73 -85 145 -157
l131 -130 0 -317 c0 -175 -3 -318 -8 -318 -4 0 -50 32 -102 71 -359 267 -572
648 -612 1091 -26 279 40 593 177 843 72 132 142 224 264 346 153 152 356 289
431 289 14 0 45 -10 70 -21z"/>
</g>
</svg>
