<?xml version="1.0" encoding="UTF-8"?>
<svg version="1.1" xmlns="http://www.w3.org/2000/svg" width="512" height="512">
<path d="M0 0 C1.02434452 -0.00453111 2.04868904 -0.00906223 3.1040743 -0.01373065 C6.51704604 -0.02633388 9.92985738 -0.02475693 13.34284973 -0.02310181 C15.79746708 -0.02908933 18.25208255 -0.03589539 20.70669556 -0.04345703 C26.6692153 -0.05926534 32.6316726 -0.06556402 38.59420749 -0.06668179 C43.44043838 -0.06763415 48.28665629 -0.0717538 53.13288307 -0.07808304 C66.88370445 -0.09567562 80.6344947 -0.10492423 94.38532742 -0.10342209 C95.12541135 -0.10334218 95.86549527 -0.10326227 96.62800598 -0.10317993 C97.73949146 -0.10305729 97.73949146 -0.10305729 98.87343118 -0.10293217 C110.89659854 -0.10211832 122.91964092 -0.12128612 134.94277211 -0.14945666 C147.29865052 -0.17817796 159.65446792 -0.1919976 172.01038057 -0.19026911 C178.94325538 -0.18960528 185.8759989 -0.19509553 192.80884361 -0.21662521 C199.32354601 -0.23672785 205.8380181 -0.23617134 212.35275078 -0.22159195 C214.74488988 -0.21949607 217.13704612 -0.22425081 219.52915573 -0.23631287 C222.79149489 -0.2516996 226.05286788 -0.24250016 229.31518555 -0.22705078 C230.26430649 -0.23733791 231.21342744 -0.24762503 232.19130963 -0.25822389 C238.99309386 -0.18690967 242.38793877 1.20828504 247.26789856 6.05648804 C247.76676575 6.66234741 248.26563293 7.26820679 248.77961731 7.89242554 C251.45563486 11.07056558 254.17705145 14.18840549 256.96711731 17.26742554 C260.23102579 20.88418899 263.4550268 24.53132162 266.65461731 28.20492554 C269.49981021 31.44255883 272.39565567 34.63428844 275.28352356 37.83383179 C277.17560416 39.942537 279.04617489 42.06662355 280.90461731 44.20492554 C283.71534256 47.43302066 286.58291631 50.60480996 289.46711731 53.76742554 C292.92039884 57.55405552 296.32810782 61.37218874 299.68977356 65.24008179 C301.76071218 67.60231727 303.86224579 69.93538407 305.96711731 72.26742554 C309.23102579 75.88418899 312.4550268 79.53132162 315.65461731 83.20492554 C317.73922895 85.57706982 319.85140375 87.92298619 321.96711731 90.26742554 C342.58972196 113.15816776 342.58972196 113.15816776 342.59575176 121.88172054 C342.59897621 123.05768101 342.60220065 124.23364147 342.60552281 125.4452371 C342.60397421 126.74345366 342.60242561 128.04167023 342.60083008 129.37922668 C342.60269741 130.76744669 342.6049978 132.15566617 342.6076954 133.54388481 C342.61383001 137.36767733 342.61367784 141.19144804 342.61250103 145.01524436 C342.61229742 149.13611749 342.61781207 153.25698354 342.62255859 157.37785339 C342.63087605 165.45676896 342.63361398 173.53567723 342.63417097 181.61459672 C342.63464585 188.18383664 342.63669919 194.75307415 342.6398716 201.32231331 C342.64868307 219.94788673 342.65329049 238.57345439 342.65254112 257.19902992 C342.65248119 258.70616334 342.65248119 258.70616334 342.65242004 260.2437439 C342.65237916 261.24972746 342.65233828 262.25571102 342.65229616 263.29217894 C342.6518901 279.57953805 342.6614483 295.866874 342.67555841 312.15422641 C342.68993261 328.87856451 342.69682794 345.60289133 342.69596463 362.32723576 C342.69563291 371.71621335 342.69836907 381.10516669 342.70914268 390.49413872 C342.71826167 398.49254925 342.72041165 406.49092455 342.71363326 414.48933803 C342.71037441 418.5677318 342.71028822 422.64605805 342.71898651 426.72444534 C342.72688121 430.46469949 342.72538994 434.20483291 342.71670238 437.94508422 C342.71445468 439.92536757 342.72197292 441.90565474 342.72994202 443.88592333 C342.65959232 462.2341084 337.94992022 479.59691661 325.33821106 493.48617554 C311.27850151 506.87078421 296.13062914 512.5916714 277.06968689 512.52812195 C275.84469258 512.5319475 274.61969827 512.53577304 273.35758293 512.53971452 C269.97860655 512.54821396 266.59984912 512.54782383 263.22087932 512.54353392 C259.56842974 512.54105881 255.91600532 512.55009057 252.26356506 512.55757141 C245.11625333 512.57029863 237.96897919 512.57211458 230.82165803 512.56977115 C225.01008238 512.56798563 219.19851811 512.56974263 213.38694382 512.57399559 C212.1446243 512.57488837 212.1446243 512.57488837 210.87720742 512.57579919 C209.19450427 512.57701099 207.51180112 512.57822512 205.82909797 512.57944157 C190.06072788 512.59030947 174.29237919 512.58815816 158.5240079 512.58205672 C144.11163031 512.5768881 129.69932031 512.58814291 115.28695609 512.60715494 C100.47327909 512.62654593 85.65963405 512.63478714 70.84594429 512.63103169 C62.53521937 512.62912158 54.22455198 512.6315887 45.91383743 512.64574623 C38.83888652 512.65767707 31.76402855 512.65904585 24.68907632 512.64695606 C21.08261606 512.64107933 17.47632567 512.63993432 13.86987686 512.65195847 C9.95267272 512.66486643 6.03572414 512.65432416 2.11851501 512.64164734 C0.98941086 512.64902162 -0.1396933 512.65639591 -1.30301273 512.66399366 C-17.75319061 512.55229941 -33.77643589 505.88462508 -45.53288269 494.26742554 C-60.47850317 477.35335749 -63.69017336 460.08338568 -63.66659546 438.35244751 C-63.66846498 436.7206739 -63.67076624 435.08890074 -63.67346078 433.45712829 C-63.67956779 428.98334209 -63.67944648 424.50957461 -63.67826641 420.0357852 C-63.67806212 415.20674572 -63.68358381 410.37771222 -63.68832397 405.54867554 C-63.69662506 396.09147509 -63.69937857 386.63428087 -63.69993635 377.17707708 C-63.70041177 369.48858221 -63.7024678 361.80008938 -63.70563698 354.11159515 C-63.71444207 332.30598601 -63.71905658 310.50038178 -63.7183065 288.69477084 C-63.71826655 287.5195965 -63.71822659 286.34442216 -63.71818542 285.13363647 C-63.71814454 283.95702476 -63.71810366 282.78041305 -63.71806154 281.56814644 C-63.71765511 262.50050029 -63.7272243 243.43287389 -63.74132379 224.36523345 C-63.7556919 204.77954591 -63.76259374 185.19386799 -63.76173002 165.60817504 C-63.7613982 154.6151914 -63.76413867 143.62222846 -63.77490807 132.62924957 C-63.78401878 123.26952358 -63.78618361 113.90982768 -63.77939864 104.55009916 C-63.77613634 99.77700782 -63.77606632 95.0039742 -63.78475189 90.23088837 C-63.79263055 85.85614458 -63.79117152 81.48150416 -63.78246776 77.10676286 C-63.78093578 75.52940949 -63.78273747 73.95204836 -63.78832784 72.37470415 C-63.85378488 52.58524366 -60.14177479 34.17809502 -46.40397644 19.04867554 C-33.11943045 6.40200962 -18.17762061 -0.05973905 0 0 Z M-24.53288269 29.26742554 C-25.83225769 30.10273804 -25.83225769 30.10273804 -27.15788269 30.95492554 C-36.87374542 40.41510767 -41.24452865 52.14928058 -41.6258167 65.52841616 C-41.66506087 69.63283784 -41.6711547 73.73617366 -41.66659546 77.84072876 C-41.66846507 79.43537918 -41.67076637 81.03002914 -41.67346078 82.62467837 C-41.67956665 86.99585053 -41.67944662 91.36700352 -41.67826641 95.73817897 C-41.67806209 100.45678803 -41.68358408 105.17539099 -41.68832397 109.89399719 C-41.69662443 119.13462645 -41.69937854 128.37524933 -41.69993635 137.61588201 C-41.7004118 145.12846155 -41.70246798 152.64103899 -41.70563698 160.15361786 C-41.7144419 181.46118927 -41.71905661 202.76875566 -41.7183065 224.0763289 C-41.71826655 225.22462028 -41.71822659 226.37291167 -41.71818542 227.55599976 C-41.71814454 228.70569594 -41.71810366 229.85539211 -41.71806154 231.03992757 C-41.71765512 249.67108338 -41.72722419 268.30221898 -41.74132379 286.93336895 C-41.75569264 306.07157162 -41.76259369 325.20976443 -41.76173002 344.34797263 C-41.76139822 355.08944537 -41.76413759 365.83089693 -41.77490807 376.57236481 C-41.78401975 385.71799388 -41.78618281 394.86359214 -41.77939864 404.00922379 C-41.77613683 408.67295124 -41.77606455 413.33661961 -41.78475189 418.00034142 C-41.79263273 422.27516318 -41.79116932 426.54987918 -41.78246776 430.82469842 C-41.78093626 432.36571287 -41.78273566 433.90673528 -41.78832784 435.44774035 C-41.84421781 451.95071771 -40.35437057 466.97197252 -28.50944519 479.52133179 C-18.70005803 488.18693665 -8.1297959 490.72421587 4.63676453 490.65510559 C6.43750402 490.6631839 6.43750402 490.6631839 8.27462208 490.6714254 C11.58528972 490.68320827 14.89545045 490.68165679 18.20609736 490.67425859 C21.78493855 490.66951236 25.36372669 490.6820496 28.94255066 490.692276 C35.94549695 490.70944116 42.94835341 490.71030874 49.95131527 490.7050631 C55.64561901 490.70101576 61.33989628 490.70247164 67.03419876 490.70781136 C67.8457596 490.70855978 68.65732045 490.7093082 69.49347404 490.7100793 C71.1423552 490.71161084 72.79123635 490.71314918 74.44011749 490.71469427 C89.89088739 490.72841115 105.34160661 490.72298742 120.79237534 490.71150906 C134.91378268 490.70157839 149.03505896 490.7145159 163.15644608 490.73844325 C177.67180704 490.762852 192.187107 490.7724377 206.70248806 490.76579052 C214.84555506 490.76230213 222.98852129 490.76450514 231.13157272 490.78204155 C238.06382 490.7967858 244.99589557 490.79737008 251.92813955 490.77997064 C255.46173734 490.77147629 258.99502868 490.76927225 262.52861023 490.78462219 C266.36706342 490.80108941 270.20504722 490.78628079 274.04350281 490.76863098 C275.14926127 490.77823599 276.25501974 490.78784099 277.39428604 490.79773706 C287.14174758 490.70579356 295.65485001 488.26288648 303.46711731 482.26742554 C304.45711731 481.54555054 305.44711731 480.82367554 306.46711731 480.07992554 C315.41392794 472.37442633 319.52468227 460.74850923 320.46711731 449.26742554 C320.60652431 444.8969331 320.59779589 440.52935711 320.58737183 436.1569519 C320.58822625 434.84337975 320.58908068 433.5298076 320.58996099 432.17643023 C320.59218906 428.54599028 320.58820784 424.91558002 320.58318293 421.28514385 C320.57885432 417.36432079 320.58032657 413.44349934 320.58108521 409.52267456 C320.58160891 402.73474228 320.57847811 395.94681963 320.57284737 389.15888977 C320.56471162 379.34474845 320.56211502 369.53061177 320.56085937 359.71646744 C320.55867212 343.79269563 320.55202087 327.86892894 320.54255676 311.94515991 C320.53337421 296.47901434 320.5262975 281.01287016 320.52204895 265.54672241 C320.52178623 264.59298562 320.5215235 263.63924882 320.52125282 262.65661091 C320.51994776 257.87187319 320.51868405 253.08713546 320.51744092 248.30239773 C320.50707846 208.62407007 320.48946901 168.94574814 320.46711731 129.26742554 C319.40524704 129.2615593 318.34337677 129.25569305 317.24932861 129.24964905 C307.22966688 129.19237242 297.21022115 129.11958487 287.19077969 129.03171062 C282.0399883 128.98703208 276.88927555 128.94777031 271.73835754 128.92098999 C266.76504492 128.89493206 261.79203532 128.85451179 256.8189106 128.80423927 C254.92400451 128.78758744 253.02904602 128.77606269 251.13407707 128.76981163 C248.47450563 128.76015226 245.81570648 128.73207118 243.15632629 128.69979858 C242.37732971 128.70123367 241.59833313 128.70266876 240.79573059 128.70414734 C235.65852947 128.61630299 232.01450915 127.71746553 227.46711731 125.26742554 C225.41695092 122.19217596 225.21452768 121.54498361 225.18864441 118.0723114 C225.17189919 116.79138107 225.17189919 116.79138107 225.15481567 115.48457336 C225.15265549 114.5509346 225.1504953 113.61729584 225.14826965 112.65536499 C225.13822403 111.66981628 225.12817841 110.68426758 225.11782837 109.66885376 C225.08689868 106.40614412 225.06993397 103.1435169 225.05305481 99.88070679 C225.03435104 97.62054226 225.01477823 95.36038476 224.99436951 93.10023499 C224.94295875 87.1474217 224.90338088 81.19458576 224.8662262 75.2416687 C224.82624259 69.16881666 224.77512454 63.09605962 224.72492981 57.02328491 C224.62806462 45.10473177 224.54369376 33.18612509 224.46711731 21.26742554 C195.62554469 21.1989044 166.78398171 21.14585356 137.94234364 21.11422955 C134.53295817 21.11047768 131.12357285 21.10659469 127.71418762 21.10263062 C127.03547518 21.10184368 126.35676274 21.10105675 125.65748325 21.10024597 C114.68540294 21.08721214 103.71337006 21.06356951 92.74131784 21.03596715 C81.47278064 21.00785654 70.20426703 20.99146172 58.93569303 20.98516005 C52.61059754 20.98125489 46.28560942 20.97209979 39.9605484 20.95023537 C34.00163865 20.92980443 28.04288005 20.92360513 22.0839386 20.92810249 C19.90234301 20.92728025 17.72074213 20.92135421 15.53917694 20.90980911 C0.96703269 20.83650384 -11.94247769 21.03022475 -24.53288269 29.26742554 Z M246.46711731 40.26742554 C246.46711731 62.37742554 246.46711731 84.48742554 246.46711731 107.26742554 C265.93711731 107.26742554 285.40711731 107.26742554 305.46711731 107.26742554 C303.90324568 104.13968228 303.02915203 102.57526057 300.74446106 100.20101929 C299.9440741 99.35809326 299.9440741 99.35809326 299.1275177 98.49813843 C298.27468201 97.61049805 298.27468201 97.61049805 297.40461731 96.70492554 C293.45091946 92.52607528 289.61474368 88.33500886 286.02961731 83.82992554 C281.22780718 77.82988182 275.9643714 72.30089628 270.69758606 66.71273804 C267.76001241 63.59308684 264.9102222 60.41079146 262.11164856 57.16586304 C260.04625905 54.78158916 257.94699803 52.42939959 255.84211731 50.07992554 C255.12797668 49.28199585 254.41383606 48.48406616 253.67805481 47.66195679 C251.34251985 45.13248165 248.90155441 42.70186264 246.46711731 40.26742554 Z " fill="#000000" transform="translate(116.53288269042969,-0.267425537109375)"/>
<path d="M0 0 C1.56942384 -0.01064158 1.56942384 -0.01064158 3.17055321 -0.02149814 C6.67608765 -0.03909858 10.18051639 -0.02096171 13.68603516 -0.00291443 C16.19932562 -0.00805242 18.71261248 -0.01533278 21.22589111 -0.02459717 C27.34335535 -0.04120913 33.46040972 -0.03446664 39.57785845 -0.01650894 C44.55003648 -0.00247729 49.5221278 0.00140866 54.49432373 -0.00195122 C55.20227093 -0.00242866 55.91021813 -0.0029061 56.63961828 -0.00339801 C58.07784671 -0.00442435 59.51607512 -0.00547971 60.9543035 -0.00656378 C73.66898109 -0.01512936 86.38350447 0.00153946 99.09814453 0.03126526 C111.43284584 0.06010236 123.76732501 0.06718606 136.10205078 0.05177307 C149.53711881 0.0350081 162.97208139 0.03097969 176.40715218 0.04848343 C177.84005863 0.0503278 179.2729651 0.05216253 180.70587158 0.0539875 C181.76336863 0.05535564 181.76336863 0.05535564 182.84222925 0.05675141 C187.80782181 0.06235498 192.77336287 0.05905131 197.73895264 0.05244255 C204.42358388 0.04389902 211.10784715 0.05687926 217.79244232 0.08429146 C220.24745482 0.09118499 222.70249719 0.09126297 225.15750885 0.08407593 C228.50543004 0.07540344 231.85235732 0.09130147 235.20019531 0.11352539 C236.66196481 0.10116424 236.66196481 0.10116424 238.153265 0.08855337 C243.7683647 0.15748025 247.22957945 0.73158157 251.60009766 4.62818909 C253.30523087 8.46473882 253.78403424 10.69011254 252.97509766 14.81568909 C251.5210426 17.78989262 250.15416773 19.53849539 247.60009766 21.62818909 C244.81532186 22.55644769 243.15276818 22.75494959 240.2781086 22.75961685 C239.39043647 22.763458 238.50276434 22.76729914 237.58819306 22.77125669 C236.61204131 22.7703902 235.63588957 22.76952372 234.63015747 22.76863098 C233.59389973 22.7716021 232.55764198 22.77457323 231.48998249 22.77763438 C228.00080056 22.78633964 224.51165287 22.78783117 221.02246094 22.7893219 C218.52769904 22.79394873 216.03293785 22.7989732 213.53817749 22.80436707 C206.74897843 22.81750489 199.95979282 22.82397507 193.1705842 22.82837772 C188.93236446 22.83113971 184.694147 22.83537696 180.4559288 22.8398819 C168.72405452 22.85207409 156.99218207 22.86237388 145.26030159 22.86575699 C144.50939151 22.86597655 143.75848142 22.86619612 142.98481648 22.86642234 C141.8557437 22.86674976 141.8557437 22.86674976 140.70386136 22.86708379 C139.1785508 22.86752726 137.65324024 22.86797382 136.12792969 22.86842346 C135.37132159 22.86864489 134.6147135 22.86886632 133.83517788 22.86909446 C121.57171831 22.87304362 109.30831811 22.89050144 97.04488148 22.91378298 C84.45755186 22.9374868 71.87025205 22.94995838 59.28289974 22.95112491 C52.21417245 22.95204215 45.14552255 22.95780702 38.07681656 22.97594452 C31.43008633 22.9929391 24.78347725 22.99460541 18.13672256 22.98580551 C15.69417935 22.98503245 13.25162839 22.98941308 10.80910492 22.99926376 C7.48056103 23.0119029 4.15254475 23.00615001 0.82400513 22.99568176 C-0.14768517 23.00373817 -1.11937547 23.01179457 -2.12051094 23.02009511 C-7.03376253 22.98383348 -10.42847306 22.8601192 -14.39990234 19.62818909 C-17.13443018 16.52905753 -17.6427104 14.14839098 -17.46240234 10.12818909 C-17.22489878 6.66916277 -16.39657316 5.62458822 -13.99301147 3.02487278 C-9.70071438 -0.40971538 -5.29581134 -0.06431908 0 0 Z " fill="#000000" transform="translate(135.39990234375,280.37181091308594)"/>
<path d="M0 0 C1.03726103 -0.00467997 2.07452206 -0.00935994 3.14321524 -0.01418173 C6.62397242 -0.0261616 10.10433806 -0.01666253 13.58509827 -0.00723267 C16.07853424 -0.01129705 18.57196842 -0.01663818 21.06539917 -0.02316284 C27.13812724 -0.03543578 33.21070127 -0.03362069 39.28342336 -0.02492492 C44.21937976 -0.01814961 49.155305 -0.01723099 54.09126472 -0.02049637 C54.79379669 -0.02095607 55.49632866 -0.02141577 56.22014948 -0.0218894 C57.64734543 -0.02284858 59.07454137 -0.02382122 60.5017373 -0.02480717 C73.88549038 -0.03336231 87.26918182 -0.02352532 100.65292478 -0.00740607 C112.1345786 0.00599431 123.61614141 0.00367159 135.09779358 -0.01016235 C148.43212096 -0.02622102 161.7663943 -0.03253525 175.10073 -0.02332556 C176.52297977 -0.02236992 177.94522954 -0.02142681 179.36747932 -0.02049637 C180.41712652 -0.01980213 180.41712652 -0.01980213 181.48797871 -0.01909386 C186.41698617 -0.01650462 191.34595932 -0.02087362 196.27496147 -0.02793503 C202.91106991 -0.03723308 209.54703307 -0.03060209 216.18313408 -0.01325226 C218.62041437 -0.00928157 221.05770911 -0.01043137 223.49498367 -0.01704025 C226.81871071 -0.02522261 230.1418845 -0.0149735 233.46557617 0 C234.43298939 -0.00669217 235.40040261 -0.01338433 236.39713138 -0.02027929 C241.59581297 0.02523155 245.34005543 0.39071744 249.79627991 3.38095093 C252.01294866 6.70595406 252.56765904 8.41818921 252.79627991 12.38095093 C251.67567938 16.05403043 250.77320947 18.54864247 247.8215704 21.0633316 C243.39131266 22.99286307 239.30046319 22.80143666 234.51663208 22.77536011 C232.94848988 22.78449676 232.94848988 22.78449676 231.34866804 22.793818 C227.84029135 22.81048722 224.33227604 22.80566648 220.8238678 22.8008728 C218.31072613 22.8082108 215.79758784 22.81679623 213.28445435 22.82653809 C207.16361761 22.84647824 201.04291418 22.85213319 194.92204935 22.8503502 C189.94699822 22.84904246 184.97197664 22.85284732 179.99693108 22.86027527 C178.56376169 22.86237446 177.13059231 22.86447207 175.69742292 22.86656809 C174.62742756 22.86813338 174.62742756 22.86813338 173.53581613 22.86973029 C160.04620118 22.88863082 146.55664061 22.88758295 133.06701791 22.88076097 C120.72670481 22.87518469 108.38659927 22.89601478 96.04633469 22.92912143 C83.37417047 22.96285459 70.70210569 22.97802731 58.02989572 22.97340441 C50.91585047 22.97115945 43.80199709 22.97640668 36.68799019 23.001297 C29.99924584 23.02450027 23.31100474 23.02173215 16.62222862 23.00136948 C14.16559134 22.99794973 11.70892522 23.00308973 9.25232697 23.01735306 C5.90201275 23.03546516 2.55317988 23.02285455 -0.79708862 23.00241089 C-1.77228374 23.01492874 -2.74747886 23.02744658 -3.75222534 23.04034376 C-8.20226607 22.98201205 -11.24975158 22.82193235 -14.79163456 19.96710968 C-17.64584393 16.9069203 -18.14027103 16.22165097 -18.45372009 12.06845093 C-18.18490894 8.10348641 -17.67169834 6.44464806 -15.20372009 3.38095093 C-10.50508474 -0.46447521 -5.78082675 -0.03989737 0 0 Z " fill="#000000" transform="translate(136.20372009277344,228.61904907226563)"/>
<path d="M0 0 C0.90011336 -0.00644889 1.80022673 -0.01289778 2.72761625 -0.0195421 C3.712528 -0.01644489 4.69743975 -0.01334769 5.7121973 -0.01015663 C6.76156013 -0.01468774 7.81092296 -0.01921886 8.89208466 -0.02388728 C12.41965537 -0.0365802 15.94707266 -0.03490775 19.47466373 -0.03325844 C21.99913069 -0.03924057 24.52359581 -0.04604538 27.04805851 -0.05361366 C33.20009053 -0.0694721 39.35206604 -0.07572336 45.50411659 -0.07683842 C50.50398432 -0.07778859 55.50383939 -0.08189735 60.50370312 -0.08823967 C74.67649343 -0.10585223 88.84925345 -0.11507838 103.02205478 -0.11357872 C103.78613742 -0.11349881 104.55022005 -0.1134189 105.3374567 -0.11333656 C106.48497836 -0.11321392 106.48497836 -0.11321392 107.65568227 -0.1130888 C120.05813331 -0.11227563 132.46046299 -0.13142108 144.86287891 -0.1596133 C157.59488808 -0.18832662 170.32683801 -0.20215449 183.05888039 -0.20042574 C190.20809559 -0.19976136 197.35718352 -0.20527482 204.50636959 -0.22678185 C211.22786655 -0.2468726 217.94904969 -0.24633594 224.67057514 -0.23174858 C227.14053266 -0.2296509 229.61050674 -0.234418 232.08043575 -0.2464695 C235.44629105 -0.26183167 238.81120698 -0.25267291 242.17704105 -0.23720741 C243.15972208 -0.24749454 244.14240311 -0.25778167 245.15486234 -0.26838052 C249.40429561 -0.22508415 251.8534449 -0.13262968 255.56395912 2.07723618 C258.20126991 5.03452768 258.90269995 7.35573102 259.508111 11.25726891 C258.62640279 15.75398077 257.09860395 18.40599509 253.508111 21.25726891 C250.66221754 22.17251329 248.0753578 22.38381673 245.09710217 22.38869667 C244.21502248 22.39253782 243.33294279 22.39637896 242.42413342 22.4003365 C241.45935853 22.39947002 240.49458365 22.39860354 239.50057316 22.3977108 C238.47233366 22.40068192 237.44409416 22.40365304 236.38469589 22.4067142 C232.92859301 22.41540725 229.47252474 22.41690996 226.01641178 22.41840172 C223.54282908 22.4230294 221.06924709 22.42805399 218.59566593 22.43344688 C211.86844043 22.4465762 205.14122849 22.45305332 198.41399336 22.45745754 C194.2134501 22.46022098 190.01290914 22.46445847 185.81236744 22.46896172 C174.18167929 22.48115235 162.55099298 22.49145265 150.92029858 22.49483681 C150.1761104 22.49505637 149.43192222 22.49527594 148.66518288 22.49550216 C147.91922114 22.49572044 147.17325941 22.49593871 146.40469277 22.49616361 C144.89310431 22.49660707 143.38151586 22.49705364 141.86992741 22.49750328 C140.74522883 22.49783543 140.74522883 22.49783543 139.59780906 22.49817428 C127.44501932 22.50212336 115.29228951 22.51958164 103.13952293 22.5428628 C90.661768 22.56657363 78.18404315 22.5790385 65.70626533 22.58020473 C58.70067796 22.58112154 51.69516871 22.58687569 44.68960285 22.60502434 C38.10195184 22.62203033 31.51442303 22.62367998 24.92674732 22.61488533 C22.50719907 22.61411285 20.08764296 22.61848526 17.66811466 22.62834358 C14.36843685 22.64100107 11.06928985 22.63521973 7.76961613 22.62476158 C6.32914596 22.63684619 6.32914596 22.63684619 4.85957539 22.64917493 C-0.34348952 22.61053233 -4.00161991 22.19110302 -8.491889 19.25726891 C-10.93529091 16.32518662 -11.45848434 14.56904569 -11.866889 10.75726891 C-11.46524398 7.00858201 -10.8323512 5.18284666 -8.491889 2.25726891 C-5.57774193 0.47139386 -3.39460045 0.00615922 0 0 Z " fill="#000000" transform="translate(129.49188899993896,332.74273109436035)"/>
<path d="M0 0 C0.90011336 -0.00644889 1.80022673 -0.01289778 2.72761625 -0.0195421 C3.712528 -0.01644489 4.69743975 -0.01334769 5.7121973 -0.01015663 C6.76156013 -0.01468774 7.81092296 -0.01921886 8.89208466 -0.02388728 C12.41965537 -0.0365802 15.94707266 -0.03490775 19.47466373 -0.03325844 C21.99913069 -0.03924057 24.52359581 -0.04604538 27.04805851 -0.05361366 C33.20009053 -0.0694721 39.35206604 -0.07572336 45.50411659 -0.07683842 C50.50398432 -0.07778859 55.50383939 -0.08189735 60.50370312 -0.08823967 C74.67649343 -0.10585223 88.84925345 -0.11507838 103.02205478 -0.11357872 C103.78613742 -0.11349881 104.55022005 -0.1134189 105.3374567 -0.11333656 C106.48497836 -0.11321392 106.48497836 -0.11321392 107.65568227 -0.1130888 C120.05813331 -0.11227563 132.46046299 -0.13142108 144.86287891 -0.1596133 C157.59488808 -0.18832662 170.32683801 -0.20215449 183.05888039 -0.20042574 C190.20809559 -0.19976136 197.35718352 -0.20527482 204.50636959 -0.22678185 C211.22786655 -0.2468726 217.94904969 -0.24633594 224.67057514 -0.23174858 C227.14053266 -0.2296509 229.61050674 -0.234418 232.08043575 -0.2464695 C235.44629105 -0.26183167 238.81120698 -0.25267291 242.17704105 -0.23720741 C243.15972208 -0.24749454 244.14240311 -0.25778167 245.15486234 -0.26838052 C249.40429561 -0.22508415 251.8534449 -0.13262968 255.56395912 2.07723618 C258.20126991 5.03452768 258.90269995 7.35573102 259.508111 11.25726891 C258.62640279 15.75398077 257.09860395 18.40599509 253.508111 21.25726891 C250.66221754 22.17251329 248.0753578 22.38381673 245.09710217 22.38869667 C244.21502248 22.39253782 243.33294279 22.39637896 242.42413342 22.4003365 C241.45935853 22.39947002 240.49458365 22.39860354 239.50057316 22.3977108 C238.47233366 22.40068192 237.44409416 22.40365304 236.38469589 22.4067142 C232.92859301 22.41540725 229.47252474 22.41690996 226.01641178 22.41840172 C223.54282908 22.4230294 221.06924709 22.42805399 218.59566593 22.43344688 C211.86844043 22.4465762 205.14122849 22.45305332 198.41399336 22.45745754 C194.2134501 22.46022098 190.01290914 22.46445847 185.81236744 22.46896172 C174.18167929 22.48115235 162.55099298 22.49145265 150.92029858 22.49483681 C150.1761104 22.49505637 149.43192222 22.49527594 148.66518288 22.49550216 C147.91922114 22.49572044 147.17325941 22.49593871 146.40469277 22.49616361 C144.89310431 22.49660707 143.38151586 22.49705364 141.86992741 22.49750328 C140.74522883 22.49783543 140.74522883 22.49783543 139.59780906 22.49817428 C127.44501932 22.50212336 115.29228951 22.51958164 103.13952293 22.5428628 C90.661768 22.56657363 78.18404315 22.5790385 65.70626533 22.58020473 C58.70067796 22.58112154 51.69516871 22.58687569 44.68960285 22.60502434 C38.10195184 22.62203033 31.51442303 22.62367998 24.92674732 22.61488533 C22.50719907 22.61411285 20.08764296 22.61848526 17.66811466 22.62834358 C14.36843685 22.64100107 11.06928985 22.63521973 7.76961613 22.62476158 C6.32914596 22.63684619 6.32914596 22.63684619 4.85957539 22.64917493 C-0.34348952 22.61053233 -4.00161991 22.19110302 -8.491889 19.25726891 C-10.93529091 16.32518662 -11.45848434 14.56904569 -11.866889 10.75726891 C-11.46524398 7.00858201 -10.8323512 5.18284666 -8.491889 2.25726891 C-5.57774193 0.47139386 -3.39460045 0.00615922 0 0 Z " fill="#000000" transform="translate(129.49188899993896,176.74273109436035)"/>
<path d="M0 0 C0.89656815 -0.00335861 1.79313629 -0.00671722 2.71687317 -0.01017761 C5.675358 -0.01966232 8.63378608 -0.02162946 11.59228516 -0.02270508 C13.65345279 -0.02591929 15.7146202 -0.02928349 17.77578735 -0.03279114 C22.09483367 -0.03877613 26.41385999 -0.04063167 30.73291016 -0.04003906 C36.25979509 -0.03993746 41.78655151 -0.053591 47.31340599 -0.07081127 C51.5702676 -0.0819443 55.82709826 -0.08395787 60.08397293 -0.08342934 C62.12126737 -0.08460743 64.15856267 -0.08901963 66.19584274 -0.0967617 C69.04862148 -0.10658814 71.90112279 -0.10367306 74.75390625 -0.09765625 C75.59050278 -0.10327576 76.4270993 -0.10889526 77.28904724 -0.11468506 C82.23445444 -0.08825735 86.35608824 0.40139908 91.00634766 2.14526367 C93.93700067 5.37649648 94.9117502 7.37497007 95.44384766 11.70776367 C94.96347927 15.48208672 94.48530543 17.266474 92.00634766 20.14526367 C86.41805606 23.12308837 81.86723223 23.57809464 75.60205078 23.53344727 C74.22749977 23.5413327 74.22749977 23.5413327 72.82518005 23.54937744 C69.81247641 23.56252255 66.80030617 23.55385874 63.78759766 23.54370117 C61.68444722 23.54572348 59.58129746 23.54863623 57.47814941 23.55239868 C53.07683618 23.55681461 48.67570597 23.55041444 44.27441406 23.53637695 C38.6421171 23.51928565 33.01024907 23.52913073 27.37796783 23.54709435 C23.03701566 23.55795187 18.69616462 23.55447677 14.35520935 23.54671097 C12.27884368 23.54471441 10.20246872 23.54714904 8.12611389 23.55414963 C5.22071116 23.56179643 2.31599625 23.5501145 -0.58935547 23.53344727 C-1.44151138 23.53951996 -2.2936673 23.54559265 -3.17164612 23.55184937 C-8.51589729 23.49525616 -12.25513054 22.6702728 -16.99365234 20.14526367 C-19.5078516 17.22554841 -19.95706181 15.48677529 -20.36865234 11.64526367 C-19.9690677 7.91580702 -19.26595431 6.09084029 -16.99365234 3.14526367 C-11.66153036 -0.40948432 -6.20320785 -0.00334411 0 0 Z " fill="#000000" transform="translate(137.99365234375,105.854736328125)"/>
<path d="M0 0 C0.91636734 -0.00525696 1.83273468 -0.01051392 2.77687073 -0.01593018 C5.78957437 -0.02907528 8.80174461 -0.02041148 11.81445312 -0.01025391 C13.91760357 -0.01227622 16.02075332 -0.01518896 18.12390137 -0.01895142 C22.5252146 -0.02336734 26.92634481 -0.01696718 31.32763672 -0.00292969 C36.95993368 0.01416162 42.59180171 0.00431653 48.22408295 -0.01364708 C52.56503512 -0.02450461 56.90588616 -0.02102951 61.24684143 -0.0132637 C63.3232071 -0.01126715 65.39958206 -0.01370178 67.47593689 -0.02070236 C70.38133962 -0.02834916 73.28605454 -0.01666724 76.19140625 0 C77.04356216 -0.00607269 77.89571808 -0.01214539 78.7736969 -0.0184021 C84.11794807 0.0381911 87.85718132 0.86317446 92.59570312 3.38818359 C95.10990238 6.30789886 95.55911259 8.04667197 95.97070312 11.88818359 C95.57111848 15.61764024 94.86800509 17.44260698 92.59570312 20.38818359 C87.25952549 23.94563535 81.79415637 23.5367877 75.58618164 23.53344727 C74.6880072 23.53680588 73.78983276 23.54016449 72.86444092 23.54362488 C69.9011496 23.55310867 66.93791492 23.5550766 63.97460938 23.55615234 C61.91104611 23.55936633 59.84748307 23.56273051 57.78392029 23.5662384 C53.46067781 23.57222296 49.13745531 23.57407895 44.81420898 23.57348633 C39.27825763 23.57338466 33.74243439 23.58704498 28.2065134 23.60425854 C23.94540317 23.61538304 19.68432388 23.61740541 15.42320061 23.6168766 C13.38228857 23.61805572 11.3413757 23.62247369 9.30047798 23.63020897 C6.44510059 23.64001934 3.59000112 23.63712679 0.73461914 23.63110352 C-0.10557266 23.63672302 -0.94576447 23.64234253 -1.81141663 23.64813232 C-7.47173428 23.61783115 -12.26373874 23.23947712 -16.71679688 19.38818359 C-19.7974749 15.73700964 -19.72539355 13.12435957 -19.40429688 8.38818359 C-17.98466091 4.71383169 -16.86328767 3.63276534 -13.37097168 1.77182007 C-8.93274836 -0.02660831 -4.73622822 -0.03375164 0 0 Z " fill="#000000" transform="translate(137.404296875,382.61181640625)"/>
</svg>
