<?xml version="1.0" encoding="UTF-8"?>
<svg version="1.1" xmlns="http://www.w3.org/2000/svg" width="512" height="512">
<path d="M0 0 C2.31640625 2.0390625 2.31640625 2.0390625 3.578125 3.81860352 C6.33050321 7.71226288 6.33050321 7.71226288 10.5690918 9.53808594 C13.22122896 9.58461013 15.7977838 9.44140688 18.44140625 9.2265625 C32.24473415 8.69447758 41.81977709 11.70872547 52.31640625 21.0390625 C63.39231028 32.27096518 68.78736959 46.98183943 72.31640625 62.0390625 C72.48156738 62.72484375 72.64672852 63.410625 72.81689453 64.1171875 C75.62169847 76.46180544 75.62734443 89.00751648 75.69140625 101.6015625 C75.69935211 102.41933167 75.70729797 103.23710083 75.71548462 104.07965088 C75.81358479 117.24288052 74.66545816 130.08716515 71.63525391 142.92480469 C71.16834683 146.02083476 72.66743548 147.45174883 74.31640625 150.0390625 C78.95662625 167.7239826 76.44940986 187.86837198 67.31640625 203.6015625 C64.10445147 208.9174536 60.36376106 213.26427619 56.00390625 217.6640625 C51.20201553 222.55717958 49.10918572 226.37260379 47.4765625 233.1328125 C43.97224201 246.2872749 36.36465755 259.07598436 28.6171875 270.15600586 C23.61348182 277.35189878 20.17202346 284.17009591 21.31640625 293.0390625 C23.11358914 298.28645212 25.4750445 302.15484699 30.31640625 305.0390625 C37.54738754 308.02356943 44.89953403 310.02905123 52.50390625 311.7890625 C88.5436378 320.5488756 124.19550316 335.06735022 151.31640625 361.0390625 C152.09757812 361.75707031 152.87875 362.47507812 153.68359375 363.21484375 C163.89586176 372.89414828 173.05090672 386.56621238 173.63867188 401.02124023 C173.67859385 402.92149911 173.70594755 404.82205151 173.72265625 406.72265625 C173.7340564 407.73699234 173.74545654 408.75132843 173.75720215 409.79640198 C173.77602351 411.93364334 173.78913871 414.07094172 173.796875 416.20825195 C173.8163278 419.46343459 173.87845379 422.71611 173.94140625 425.97070312 C173.95446505 428.05467262 173.96496649 430.13866003 173.97265625 432.22265625 C173.99734985 433.18747421 174.02204346 434.15229218 174.04748535 435.14634705 C174.00183004 442.12735819 172.13962812 446.0256439 167.31640625 451.0390625 C162.84987487 455.40348032 158.10093479 458.61050253 152.56640625 461.4765625 C151.83107666 461.85925293 151.09574707 462.24194336 150.33813477 462.63623047 C108.11739148 484.02047362 57.04351154 490.35820841 10.31640625 494.0390625 C9.12700439 494.13477539 7.93760254 494.23048828 6.7121582 494.32910156 C-7.71303114 495.33595073 -22.16724994 495.28347304 -36.62109375 495.2890625 C-37.66895994 495.28994621 -37.66895994 495.28994621 -38.73799515 495.29084778 C-190.70915466 495.38098311 -190.70915466 495.38098311 -228.62109375 459.27734375 C-233.95960268 453.48384827 -236.7665951 448.1719015 -236.8605957 440.26147461 C-236.87343094 439.3162645 -236.88626617 438.37105438 -236.89949036 437.39720154 C-236.90687729 436.38053909 -236.91426422 435.36387665 -236.921875 434.31640625 C-236.92994675 433.26054825 -236.93801849 432.20469025 -236.94633484 431.11683655 C-236.96016144 428.88007237 -236.97088995 426.64328721 -236.97875977 424.40649414 C-236.99025274 422.13234217 -237.01066162 419.8582166 -237.0402832 417.58422852 C-237.08323008 414.28643586 -237.0991691 410.98944486 -237.109375 407.69140625 C-237.12688309 406.68891342 -237.14439117 405.68642059 -237.16242981 404.65354919 C-237.1089074 386.95753033 -226.70059898 373.03940059 -214.68359375 361.0390625 C-185.95536689 332.71929385 -142.69827007 316.42644444 -103.75390625 309.10546875 C-96.99910252 307.63069411 -92.21489195 302.46297639 -88.19921875 297.03125 C-84.54815146 290.91968085 -83.13911383 284.00565277 -84.68359375 277.0390625 C-86.90203834 272.78364118 -89.88207817 269.01250303 -92.72265625 265.16015625 C-101.93512 252.62211702 -108.19442669 237.94745336 -110.71484375 222.62109375 C-111.42634623 219.83517152 -111.42634623 219.83517152 -114.03125 218.86328125 C-114.90652344 218.59128906 -115.78179687 218.31929687 -116.68359375 218.0390625 C-129.65417977 209.24205618 -134.26905152 194.01428621 -137.0949707 179.31665039 C-138.57116701 171.1647763 -139.31981817 163.55860819 -137.93359375 155.2890625 C-137.794375 154.38671875 -137.65515625 153.484375 -137.51171875 152.5546875 C-136.68359375 150.0390625 -136.68359375 150.0390625 -134.50390625 148.18359375 C-133.60285156 147.12205078 -133.60285156 147.12205078 -132.68359375 146.0390625 C-133.01183179 143.26142552 -133.47712194 141.10291806 -134.30859375 138.4765625 C-137.74090734 126.80899985 -139.09580279 115.8565831 -139.05859375 103.6640625 C-139.05771759 102.96074799 -139.05684143 102.25743347 -139.05593872 101.5328064 C-139.00606732 89.34640974 -137.94426189 77.81538798 -134.68359375 66.0390625 C-134.44753418 65.17812988 -134.21147461 64.31719727 -133.96826172 63.43017578 C-129.26145979 46.84560292 -122.32019125 30.00848614 -110.68359375 17.0390625 C-109.97460938 16.20117188 -109.265625 15.36328125 -108.53515625 14.5 C-104.00522076 9.2588801 -99.51404593 4.78581281 -93.68359375 1.0390625 C-92.6884375 0.39066406 -91.69328125 -0.25773438 -90.66796875 -0.92578125 C-64.02140235 -17.55606937 -26.03098108 -18.3801362 0 0 Z " fill="#000000" transform="translate(277.68359375,13.9609375)"/>
</svg>
